<mxfile host="app.diagrams.net" agent="Mozilla/5.0 (Windows NT 10.0; Win64; x64) AppleWebKit/537.36 (KHTML, like Gecko) Chrome/130.0.0.0 Safari/537.36" version="24.8.3">
  <diagram id="C5RBs43oDa-KdzZeNtuy" name="Page-1">
    <mxGraphModel dx="1434" dy="-423" grid="1" gridSize="10" guides="1" tooltips="1" connect="1" arrows="1" fold="1" page="1" pageScale="1" pageWidth="827" pageHeight="1169" math="0" shadow="0">
      <root>
        <mxCell id="WIyWlLk6GJQsqaUBKTNV-0" />
        <mxCell id="WIyWlLk6GJQsqaUBKTNV-1" parent="WIyWlLk6GJQsqaUBKTNV-0" />
        <mxCell id="MaMV1J0jPY5Sbd57PqEo-67" value="Role" style="swimlane;fontStyle=1;align=center;verticalAlign=top;childLayout=stackLayout;horizontal=1;startSize=26.444444444444443;horizontalStack=0;resizeParent=1;resizeParentMax=0;resizeLast=0;collapsible=0;marginBottom=0;" vertex="1" parent="WIyWlLk6GJQsqaUBKTNV-1">
          <mxGeometry x="600" y="1450" width="139" height="117.44444444444444" as="geometry" />
        </mxCell>
        <mxCell id="MaMV1J0jPY5Sbd57PqEo-68" value="+int Id" style="text;strokeColor=none;fillColor=none;align=left;verticalAlign=top;spacingLeft=4;spacingRight=4;overflow=hidden;rotatable=0;points=[[0,0.5],[1,0.5]];portConstraint=eastwest;" vertex="1" parent="MaMV1J0jPY5Sbd57PqEo-67">
          <mxGeometry y="26.444444444444443" width="139" height="26" as="geometry" />
        </mxCell>
        <mxCell id="MaMV1J0jPY5Sbd57PqEo-69" value="+string Name" style="text;strokeColor=none;fillColor=none;align=left;verticalAlign=top;spacingLeft=4;spacingRight=4;overflow=hidden;rotatable=0;points=[[0,0.5],[1,0.5]];portConstraint=eastwest;" vertex="1" parent="MaMV1J0jPY5Sbd57PqEo-67">
          <mxGeometry y="52.44444444444444" width="139" height="26" as="geometry" />
        </mxCell>
        <mxCell id="MaMV1J0jPY5Sbd57PqEo-70" value="+Collection Users" style="text;strokeColor=none;fillColor=none;align=left;verticalAlign=top;spacingLeft=4;spacingRight=4;overflow=hidden;rotatable=0;points=[[0,0.5],[1,0.5]];portConstraint=eastwest;" vertex="1" parent="MaMV1J0jPY5Sbd57PqEo-67">
          <mxGeometry y="78.44444444444444" width="139" height="26" as="geometry" />
        </mxCell>
        <mxCell id="MaMV1J0jPY5Sbd57PqEo-71" style="line;strokeWidth=1;fillColor=none;align=left;verticalAlign=middle;spacingTop=-1;spacingLeft=3;spacingRight=3;rotatable=0;labelPosition=right;points=[];portConstraint=eastwest;strokeColor=inherit;" vertex="1" parent="MaMV1J0jPY5Sbd57PqEo-67">
          <mxGeometry y="104.44444444444444" width="139" height="13" as="geometry" />
        </mxCell>
        <mxCell id="MaMV1J0jPY5Sbd57PqEo-72" value="User" style="swimlane;fontStyle=1;align=center;verticalAlign=top;childLayout=stackLayout;horizontal=1;startSize=25.066666666666666;horizontalStack=0;resizeParent=1;resizeParentMax=0;resizeLast=0;collapsible=0;marginBottom=0;" vertex="1" parent="WIyWlLk6GJQsqaUBKTNV-1">
          <mxGeometry x="331" y="1420" width="141" height="188.06666666666666" as="geometry" />
        </mxCell>
        <mxCell id="MaMV1J0jPY5Sbd57PqEo-73" value="+string IdUser" style="text;strokeColor=none;fillColor=none;align=left;verticalAlign=top;spacingLeft=4;spacingRight=4;overflow=hidden;rotatable=0;points=[[0,0.5],[1,0.5]];portConstraint=eastwest;" vertex="1" parent="MaMV1J0jPY5Sbd57PqEo-72">
          <mxGeometry y="25.066666666666666" width="141" height="25" as="geometry" />
        </mxCell>
        <mxCell id="MaMV1J0jPY5Sbd57PqEo-74" value="+string UserName" style="text;strokeColor=none;fillColor=none;align=left;verticalAlign=top;spacingLeft=4;spacingRight=4;overflow=hidden;rotatable=0;points=[[0,0.5],[1,0.5]];portConstraint=eastwest;" vertex="1" parent="MaMV1J0jPY5Sbd57PqEo-72">
          <mxGeometry y="50.06666666666666" width="141" height="25" as="geometry" />
        </mxCell>
        <mxCell id="MaMV1J0jPY5Sbd57PqEo-75" value="+string Email" style="text;strokeColor=none;fillColor=none;align=left;verticalAlign=top;spacingLeft=4;spacingRight=4;overflow=hidden;rotatable=0;points=[[0,0.5],[1,0.5]];portConstraint=eastwest;" vertex="1" parent="MaMV1J0jPY5Sbd57PqEo-72">
          <mxGeometry y="75.06666666666666" width="141" height="25" as="geometry" />
        </mxCell>
        <mxCell id="MaMV1J0jPY5Sbd57PqEo-76" value="+string Password" style="text;strokeColor=none;fillColor=none;align=left;verticalAlign=top;spacingLeft=4;spacingRight=4;overflow=hidden;rotatable=0;points=[[0,0.5],[1,0.5]];portConstraint=eastwest;" vertex="1" parent="MaMV1J0jPY5Sbd57PqEo-72">
          <mxGeometry y="100.06666666666666" width="141" height="25" as="geometry" />
        </mxCell>
        <mxCell id="MaMV1J0jPY5Sbd57PqEo-77" value="+int RoleId" style="text;strokeColor=none;fillColor=none;align=left;verticalAlign=top;spacingLeft=4;spacingRight=4;overflow=hidden;rotatable=0;points=[[0,0.5],[1,0.5]];portConstraint=eastwest;" vertex="1" parent="MaMV1J0jPY5Sbd57PqEo-72">
          <mxGeometry y="125.06666666666666" width="141" height="25" as="geometry" />
        </mxCell>
        <mxCell id="MaMV1J0jPY5Sbd57PqEo-78" value="+Role Role" style="text;strokeColor=none;fillColor=none;align=left;verticalAlign=top;spacingLeft=4;spacingRight=4;overflow=hidden;rotatable=0;points=[[0,0.5],[1,0.5]];portConstraint=eastwest;" vertex="1" parent="MaMV1J0jPY5Sbd57PqEo-72">
          <mxGeometry y="150.06666666666666" width="141" height="25" as="geometry" />
        </mxCell>
        <mxCell id="MaMV1J0jPY5Sbd57PqEo-79" style="line;strokeWidth=1;fillColor=none;align=left;verticalAlign=middle;spacingTop=-1;spacingLeft=3;spacingRight=3;rotatable=0;labelPosition=right;points=[];portConstraint=eastwest;strokeColor=inherit;" vertex="1" parent="MaMV1J0jPY5Sbd57PqEo-72">
          <mxGeometry y="175.06666666666666" width="141" height="13" as="geometry" />
        </mxCell>
        <mxCell id="MaMV1J0jPY5Sbd57PqEo-80" value="Admin" style="swimlane;fontStyle=1;align=center;verticalAlign=top;childLayout=stackLayout;horizontal=1;startSize=29.75;horizontalStack=0;resizeParent=1;resizeParentMax=0;resizeLast=0;collapsible=0;marginBottom=0;" vertex="1" parent="WIyWlLk6GJQsqaUBKTNV-1">
          <mxGeometry x="20" y="1714" width="203" height="127.75" as="geometry" />
        </mxCell>
        <mxCell id="MaMV1J0jPY5Sbd57PqEo-81" value="+string Permissions" style="text;strokeColor=none;fillColor=none;align=left;verticalAlign=top;spacingLeft=4;spacingRight=4;overflow=hidden;rotatable=0;points=[[0,0.5],[1,0.5]];portConstraint=eastwest;" vertex="1" parent="MaMV1J0jPY5Sbd57PqEo-80">
          <mxGeometry y="29.75" width="203" height="30" as="geometry" />
        </mxCell>
        <mxCell id="MaMV1J0jPY5Sbd57PqEo-82" style="line;strokeWidth=1;fillColor=none;align=left;verticalAlign=middle;spacingTop=-1;spacingLeft=3;spacingRight=3;rotatable=0;labelPosition=right;points=[];portConstraint=eastwest;strokeColor=inherit;" vertex="1" parent="MaMV1J0jPY5Sbd57PqEo-80">
          <mxGeometry y="59.75" width="203" height="8" as="geometry" />
        </mxCell>
        <mxCell id="MaMV1J0jPY5Sbd57PqEo-83" value="+GetAllUsers()" style="text;strokeColor=none;fillColor=none;align=left;verticalAlign=top;spacingLeft=4;spacingRight=4;overflow=hidden;rotatable=0;points=[[0,0.5],[1,0.5]];portConstraint=eastwest;" vertex="1" parent="MaMV1J0jPY5Sbd57PqEo-80">
          <mxGeometry y="67.75" width="203" height="30" as="geometry" />
        </mxCell>
        <mxCell id="MaMV1J0jPY5Sbd57PqEo-84" value="+DeleteUser()" style="text;strokeColor=none;fillColor=none;align=left;verticalAlign=top;spacingLeft=4;spacingRight=4;overflow=hidden;rotatable=0;points=[[0,0.5],[1,0.5]];portConstraint=eastwest;" vertex="1" parent="MaMV1J0jPY5Sbd57PqEo-80">
          <mxGeometry y="97.75" width="203" height="30" as="geometry" />
        </mxCell>
        <mxCell id="MaMV1J0jPY5Sbd57PqEo-85" value="Client" style="swimlane;fontStyle=1;align=center;verticalAlign=top;childLayout=stackLayout;horizontal=1;startSize=27.5;horizontalStack=0;resizeParent=1;resizeParentMax=0;resizeLast=0;collapsible=0;marginBottom=0;" vertex="1" parent="WIyWlLk6GJQsqaUBKTNV-1">
          <mxGeometry x="273" y="1691" width="259" height="175.5" as="geometry" />
        </mxCell>
        <mxCell id="MaMV1J0jPY5Sbd57PqEo-86" value="+List CartItems" style="text;strokeColor=none;fillColor=none;align=left;verticalAlign=top;spacingLeft=4;spacingRight=4;overflow=hidden;rotatable=0;points=[[0,0.5],[1,0.5]];portConstraint=eastwest;" vertex="1" parent="MaMV1J0jPY5Sbd57PqEo-85">
          <mxGeometry y="27.5" width="259" height="28" as="geometry" />
        </mxCell>
        <mxCell id="MaMV1J0jPY5Sbd57PqEo-87" style="line;strokeWidth=1;fillColor=none;align=left;verticalAlign=middle;spacingTop=-1;spacingLeft=3;spacingRight=3;rotatable=0;labelPosition=right;points=[];portConstraint=eastwest;strokeColor=inherit;" vertex="1" parent="MaMV1J0jPY5Sbd57PqEo-85">
          <mxGeometry y="55.5" width="259" height="8" as="geometry" />
        </mxCell>
        <mxCell id="MaMV1J0jPY5Sbd57PqEo-88" value="+AddToCart()" style="text;strokeColor=none;fillColor=none;align=left;verticalAlign=top;spacingLeft=4;spacingRight=4;overflow=hidden;rotatable=0;points=[[0,0.5],[1,0.5]];portConstraint=eastwest;" vertex="1" parent="MaMV1J0jPY5Sbd57PqEo-85">
          <mxGeometry y="63.5" width="259" height="28" as="geometry" />
        </mxCell>
        <mxCell id="MaMV1J0jPY5Sbd57PqEo-89" value="+RemoveFromCart()" style="text;strokeColor=none;fillColor=none;align=left;verticalAlign=top;spacingLeft=4;spacingRight=4;overflow=hidden;rotatable=0;points=[[0,0.5],[1,0.5]];portConstraint=eastwest;" vertex="1" parent="MaMV1J0jPY5Sbd57PqEo-85">
          <mxGeometry y="91.5" width="259" height="28" as="geometry" />
        </mxCell>
        <mxCell id="MaMV1J0jPY5Sbd57PqEo-90" value="+GetCartItems()" style="text;strokeColor=none;fillColor=none;align=left;verticalAlign=top;spacingLeft=4;spacingRight=4;overflow=hidden;rotatable=0;points=[[0,0.5],[1,0.5]];portConstraint=eastwest;" vertex="1" parent="MaMV1J0jPY5Sbd57PqEo-85">
          <mxGeometry y="119.5" width="259" height="28" as="geometry" />
        </mxCell>
        <mxCell id="MaMV1J0jPY5Sbd57PqEo-91" value="+CreateCart()" style="text;strokeColor=none;fillColor=none;align=left;verticalAlign=top;spacingLeft=4;spacingRight=4;overflow=hidden;rotatable=0;points=[[0,0.5],[1,0.5]];portConstraint=eastwest;" vertex="1" parent="MaMV1J0jPY5Sbd57PqEo-85">
          <mxGeometry y="147.5" width="259" height="28" as="geometry" />
        </mxCell>
        <mxCell id="MaMV1J0jPY5Sbd57PqEo-92" value="CartItem" style="swimlane;fontStyle=1;align=center;verticalAlign=top;childLayout=stackLayout;horizontal=1;startSize=25.384615384615383;horizontalStack=0;resizeParent=1;resizeParentMax=0;resizeLast=0;collapsible=0;marginBottom=0;" vertex="1" parent="WIyWlLk6GJQsqaUBKTNV-1">
          <mxGeometry x="553" y="1933" width="218" height="163.3846153846154" as="geometry" />
        </mxCell>
        <mxCell id="MaMV1J0jPY5Sbd57PqEo-93" value="+int IdCartItem" style="text;strokeColor=none;fillColor=none;align=left;verticalAlign=top;spacingLeft=4;spacingRight=4;overflow=hidden;rotatable=0;points=[[0,0.5],[1,0.5]];portConstraint=eastwest;" vertex="1" parent="MaMV1J0jPY5Sbd57PqEo-92">
          <mxGeometry y="25.384615384615383" width="218" height="25" as="geometry" />
        </mxCell>
        <mxCell id="MaMV1J0jPY5Sbd57PqEo-94" value="+int ProductId" style="text;strokeColor=none;fillColor=none;align=left;verticalAlign=top;spacingLeft=4;spacingRight=4;overflow=hidden;rotatable=0;points=[[0,0.5],[1,0.5]];portConstraint=eastwest;" vertex="1" parent="MaMV1J0jPY5Sbd57PqEo-92">
          <mxGeometry y="50.38461538461539" width="218" height="25" as="geometry" />
        </mxCell>
        <mxCell id="MaMV1J0jPY5Sbd57PqEo-95" value="+int Quantity" style="text;strokeColor=none;fillColor=none;align=left;verticalAlign=top;spacingLeft=4;spacingRight=4;overflow=hidden;rotatable=0;points=[[0,0.5],[1,0.5]];portConstraint=eastwest;" vertex="1" parent="MaMV1J0jPY5Sbd57PqEo-92">
          <mxGeometry y="75.38461538461539" width="218" height="25" as="geometry" />
        </mxCell>
        <mxCell id="MaMV1J0jPY5Sbd57PqEo-96" value="+Product Product" style="text;strokeColor=none;fillColor=none;align=left;verticalAlign=top;spacingLeft=4;spacingRight=4;overflow=hidden;rotatable=0;points=[[0,0.5],[1,0.5]];portConstraint=eastwest;" vertex="1" parent="MaMV1J0jPY5Sbd57PqEo-92">
          <mxGeometry y="100.38461538461539" width="218" height="25" as="geometry" />
        </mxCell>
        <mxCell id="MaMV1J0jPY5Sbd57PqEo-97" value="+ShoppingCart ShoppingCart" style="text;strokeColor=none;fillColor=none;align=left;verticalAlign=top;spacingLeft=4;spacingRight=4;overflow=hidden;rotatable=0;points=[[0,0.5],[1,0.5]];portConstraint=eastwest;" vertex="1" parent="MaMV1J0jPY5Sbd57PqEo-92">
          <mxGeometry y="125.38461538461539" width="218" height="25" as="geometry" />
        </mxCell>
        <mxCell id="MaMV1J0jPY5Sbd57PqEo-98" style="line;strokeWidth=1;fillColor=none;align=left;verticalAlign=middle;spacingTop=-1;spacingLeft=3;spacingRight=3;rotatable=0;labelPosition=right;points=[];portConstraint=eastwest;strokeColor=inherit;" vertex="1" parent="MaMV1J0jPY5Sbd57PqEo-92">
          <mxGeometry y="150.3846153846154" width="218" height="13" as="geometry" />
        </mxCell>
        <mxCell id="MaMV1J0jPY5Sbd57PqEo-99" value="ShoppingCart" style="swimlane;fontStyle=1;align=center;verticalAlign=top;childLayout=stackLayout;horizontal=1;startSize=26.444444444444443;horizontalStack=0;resizeParent=1;resizeParentMax=0;resizeLast=0;collapsible=0;marginBottom=0;" vertex="1" parent="WIyWlLk6GJQsqaUBKTNV-1">
          <mxGeometry x="600" y="1719.15" width="124" height="117.44444444444444" as="geometry" />
        </mxCell>
        <mxCell id="MaMV1J0jPY5Sbd57PqEo-100" value="+int IdCart" style="text;strokeColor=none;fillColor=none;align=left;verticalAlign=top;spacingLeft=4;spacingRight=4;overflow=hidden;rotatable=0;points=[[0,0.5],[1,0.5]];portConstraint=eastwest;" vertex="1" parent="MaMV1J0jPY5Sbd57PqEo-99">
          <mxGeometry y="26.444444444444443" width="124" height="26" as="geometry" />
        </mxCell>
        <mxCell id="MaMV1J0jPY5Sbd57PqEo-101" value="+string UserId" style="text;strokeColor=none;fillColor=none;align=left;verticalAlign=top;spacingLeft=4;spacingRight=4;overflow=hidden;rotatable=0;points=[[0,0.5],[1,0.5]];portConstraint=eastwest;" vertex="1" parent="MaMV1J0jPY5Sbd57PqEo-99">
          <mxGeometry y="52.44444444444444" width="124" height="26" as="geometry" />
        </mxCell>
        <mxCell id="MaMV1J0jPY5Sbd57PqEo-102" value="+List CartItems" style="text;strokeColor=none;fillColor=none;align=left;verticalAlign=top;spacingLeft=4;spacingRight=4;overflow=hidden;rotatable=0;points=[[0,0.5],[1,0.5]];portConstraint=eastwest;" vertex="1" parent="MaMV1J0jPY5Sbd57PqEo-99">
          <mxGeometry y="78.44444444444444" width="124" height="26" as="geometry" />
        </mxCell>
        <mxCell id="MaMV1J0jPY5Sbd57PqEo-103" style="line;strokeWidth=1;fillColor=none;align=left;verticalAlign=middle;spacingTop=-1;spacingLeft=3;spacingRight=3;rotatable=0;labelPosition=right;points=[];portConstraint=eastwest;strokeColor=inherit;" vertex="1" parent="MaMV1J0jPY5Sbd57PqEo-99">
          <mxGeometry y="104.44444444444444" width="124" height="13" as="geometry" />
        </mxCell>
        <mxCell id="MaMV1J0jPY5Sbd57PqEo-104" value="Product" style="swimlane;fontStyle=1;align=center;verticalAlign=top;childLayout=stackLayout;horizontal=1;startSize=26;horizontalStack=0;resizeParent=1;resizeParentMax=0;resizeLast=0;collapsible=0;marginBottom=0;" vertex="1" parent="WIyWlLk6GJQsqaUBKTNV-1">
          <mxGeometry x="880" y="1933" width="384" height="242" as="geometry" />
        </mxCell>
        <mxCell id="MaMV1J0jPY5Sbd57PqEo-105" value="+int IdProduct" style="text;strokeColor=none;fillColor=none;align=left;verticalAlign=top;spacingLeft=4;spacingRight=4;overflow=hidden;rotatable=0;points=[[0,0.5],[1,0.5]];portConstraint=eastwest;" vertex="1" parent="MaMV1J0jPY5Sbd57PqEo-104">
          <mxGeometry y="26" width="384" height="26" as="geometry" />
        </mxCell>
        <mxCell id="MaMV1J0jPY5Sbd57PqEo-106" value="+string Name" style="text;strokeColor=none;fillColor=none;align=left;verticalAlign=top;spacingLeft=4;spacingRight=4;overflow=hidden;rotatable=0;points=[[0,0.5],[1,0.5]];portConstraint=eastwest;" vertex="1" parent="MaMV1J0jPY5Sbd57PqEo-104">
          <mxGeometry y="52" width="384" height="26" as="geometry" />
        </mxCell>
        <mxCell id="MaMV1J0jPY5Sbd57PqEo-107" value="+string Brand" style="text;strokeColor=none;fillColor=none;align=left;verticalAlign=top;spacingLeft=4;spacingRight=4;overflow=hidden;rotatable=0;points=[[0,0.5],[1,0.5]];portConstraint=eastwest;" vertex="1" parent="MaMV1J0jPY5Sbd57PqEo-104">
          <mxGeometry y="78" width="384" height="26" as="geometry" />
        </mxCell>
        <mxCell id="MaMV1J0jPY5Sbd57PqEo-108" value="+decimal Price" style="text;strokeColor=none;fillColor=none;align=left;verticalAlign=top;spacingLeft=4;spacingRight=4;overflow=hidden;rotatable=0;points=[[0,0.5],[1,0.5]];portConstraint=eastwest;" vertex="1" parent="MaMV1J0jPY5Sbd57PqEo-104">
          <mxGeometry y="104" width="384" height="26" as="geometry" />
        </mxCell>
        <mxCell id="MaMV1J0jPY5Sbd57PqEo-109" style="line;strokeWidth=1;fillColor=none;align=left;verticalAlign=middle;spacingTop=-1;spacingLeft=3;spacingRight=3;rotatable=0;labelPosition=right;points=[];portConstraint=eastwest;strokeColor=inherit;" vertex="1" parent="MaMV1J0jPY5Sbd57PqEo-104">
          <mxGeometry y="130" width="384" height="8" as="geometry" />
        </mxCell>
        <mxCell id="MaMV1J0jPY5Sbd57PqEo-110" value="+ProductList()" style="text;strokeColor=none;fillColor=none;align=left;verticalAlign=top;spacingLeft=4;spacingRight=4;overflow=hidden;rotatable=0;points=[[0,0.5],[1,0.5]];portConstraint=eastwest;" vertex="1" parent="MaMV1J0jPY5Sbd57PqEo-104">
          <mxGeometry y="138" width="384" height="26" as="geometry" />
        </mxCell>
        <mxCell id="MaMV1J0jPY5Sbd57PqEo-111" value="+AddProduct() &lt;admin&gt;" style="text;strokeColor=none;fillColor=none;align=left;verticalAlign=top;spacingLeft=4;spacingRight=4;overflow=hidden;rotatable=0;points=[[0,0.5],[1,0.5]];portConstraint=eastwest;" vertex="1" parent="MaMV1J0jPY5Sbd57PqEo-104">
          <mxGeometry y="164" width="384" height="26" as="geometry" />
        </mxCell>
        <mxCell id="MaMV1J0jPY5Sbd57PqEo-112" value="+DeleteProduct()  &lt;admin&gt;" style="text;strokeColor=none;fillColor=none;align=left;verticalAlign=top;spacingLeft=4;spacingRight=4;overflow=hidden;rotatable=0;points=[[0,0.5],[1,0.5]];portConstraint=eastwest;" vertex="1" parent="MaMV1J0jPY5Sbd57PqEo-104">
          <mxGeometry y="190" width="384" height="26" as="geometry" />
        </mxCell>
        <mxCell id="MaMV1J0jPY5Sbd57PqEo-113" value="+Update() : &lt;admin&gt;" style="text;strokeColor=none;fillColor=none;align=left;verticalAlign=top;spacingLeft=4;spacingRight=4;overflow=hidden;rotatable=0;points=[[0,0.5],[1,0.5]];portConstraint=eastwest;" vertex="1" parent="MaMV1J0jPY5Sbd57PqEo-104">
          <mxGeometry y="216" width="384" height="26" as="geometry" />
        </mxCell>
        <mxCell id="MaMV1J0jPY5Sbd57PqEo-118" value="has" style="curved=1;startArrow=diamondThin;startSize=14;startFill=0;endArrow=none;exitX=-0.018;exitY=0.646;entryX=1.012;entryY=0.971;rounded=0;exitDx=0;exitDy=0;exitPerimeter=0;entryDx=0;entryDy=0;entryPerimeter=0;" edge="1" parent="WIyWlLk6GJQsqaUBKTNV-1" source="MaMV1J0jPY5Sbd57PqEo-69" target="MaMV1J0jPY5Sbd57PqEo-75">
          <mxGeometry relative="1" as="geometry">
            <Array as="points" />
          </mxGeometry>
        </mxCell>
        <mxCell id="MaMV1J0jPY5Sbd57PqEo-119" value="1" style="edgeLabel;resizable=0;labelBackgroundColor=none;fontSize=12;align=right;verticalAlign=top;" vertex="1" parent="MaMV1J0jPY5Sbd57PqEo-118">
          <mxGeometry x="-1" relative="1" as="geometry" />
        </mxCell>
        <mxCell id="MaMV1J0jPY5Sbd57PqEo-120" value="0..*" style="edgeLabel;resizable=0;labelBackgroundColor=none;fontSize=12;align=left;verticalAlign=bottom;" vertex="1" parent="MaMV1J0jPY5Sbd57PqEo-118">
          <mxGeometry x="1" relative="1" as="geometry" />
        </mxCell>
        <mxCell id="MaMV1J0jPY5Sbd57PqEo-121" value="" style="curved=1;startArrow=block;startSize=16;startFill=0;endArrow=none;exitX=0;exitY=0.67;entryX=0.5;entryY=0;rounded=0;" edge="1" parent="WIyWlLk6GJQsqaUBKTNV-1" source="MaMV1J0jPY5Sbd57PqEo-72" target="MaMV1J0jPY5Sbd57PqEo-80">
          <mxGeometry relative="1" as="geometry">
            <Array as="points">
              <mxPoint x="121" y="1657" />
            </Array>
          </mxGeometry>
        </mxCell>
        <mxCell id="MaMV1J0jPY5Sbd57PqEo-122" value="" style="curved=1;startArrow=block;startSize=16;startFill=0;endArrow=none;exitX=0.51;exitY=1;entryX=0.5;entryY=0;rounded=0;" edge="1" parent="WIyWlLk6GJQsqaUBKTNV-1" source="MaMV1J0jPY5Sbd57PqEo-72" target="MaMV1J0jPY5Sbd57PqEo-85">
          <mxGeometry relative="1" as="geometry">
            <Array as="points">
              <mxPoint x="402" y="1657" />
            </Array>
          </mxGeometry>
        </mxCell>
        <mxCell id="MaMV1J0jPY5Sbd57PqEo-123" value="" style="curved=1;startArrow=diamondThin;startSize=14;startFill=0;endArrow=none;exitX=0.999;exitY=0.042;entryX=0;entryY=0.5;rounded=0;exitDx=0;exitDy=0;exitPerimeter=0;entryDx=0;entryDy=0;" edge="1" parent="WIyWlLk6GJQsqaUBKTNV-1" source="MaMV1J0jPY5Sbd57PqEo-89" target="MaMV1J0jPY5Sbd57PqEo-101">
          <mxGeometry x="-0.003" relative="1" as="geometry">
            <Array as="points" />
            <mxPoint as="offset" />
          </mxGeometry>
        </mxCell>
        <mxCell id="MaMV1J0jPY5Sbd57PqEo-124" value="1" style="edgeLabel;resizable=0;labelBackgroundColor=none;fontSize=12;align=left;verticalAlign=top;" vertex="1" parent="MaMV1J0jPY5Sbd57PqEo-123">
          <mxGeometry x="-1" relative="1" as="geometry" />
        </mxCell>
        <mxCell id="MaMV1J0jPY5Sbd57PqEo-125" value="0..1" style="edgeLabel;resizable=0;labelBackgroundColor=none;fontSize=12;align=right;verticalAlign=bottom;" vertex="1" parent="MaMV1J0jPY5Sbd57PqEo-123">
          <mxGeometry x="1" relative="1" as="geometry" />
        </mxCell>
        <mxCell id="MaMV1J0jPY5Sbd57PqEo-126" value="contains" style="curved=1;startArrow=diamondThin;startSize=14;startFill=0;endArrow=none;exitX=0.5;exitY=1;entryX=0.5;entryY=0;rounded=0;" edge="1" parent="WIyWlLk6GJQsqaUBKTNV-1" source="MaMV1J0jPY5Sbd57PqEo-99" target="MaMV1J0jPY5Sbd57PqEo-92">
          <mxGeometry relative="1" as="geometry">
            <Array as="points" />
          </mxGeometry>
        </mxCell>
        <mxCell id="MaMV1J0jPY5Sbd57PqEo-127" value="1" style="edgeLabel;resizable=0;labelBackgroundColor=none;fontSize=12;align=right;verticalAlign=top;" vertex="1" parent="MaMV1J0jPY5Sbd57PqEo-126">
          <mxGeometry x="-1" relative="1" as="geometry" />
        </mxCell>
        <mxCell id="MaMV1J0jPY5Sbd57PqEo-128" value="0..*" style="edgeLabel;resizable=0;labelBackgroundColor=none;fontSize=12;align=left;verticalAlign=bottom;" vertex="1" parent="MaMV1J0jPY5Sbd57PqEo-126">
          <mxGeometry x="1" relative="1" as="geometry" />
        </mxCell>
        <mxCell id="MaMV1J0jPY5Sbd57PqEo-129" value="references" style="curved=1;startArrow=diamondThin;startSize=14;startFill=0;endArrow=none;exitX=1;exitY=0.5;rounded=0;exitDx=0;exitDy=0;entryX=0;entryY=0.346;entryDx=0;entryDy=0;entryPerimeter=0;" edge="1" parent="WIyWlLk6GJQsqaUBKTNV-1" source="MaMV1J0jPY5Sbd57PqEo-95" target="MaMV1J0jPY5Sbd57PqEo-107">
          <mxGeometry relative="1" as="geometry">
            <Array as="points" />
            <mxPoint x="820" y="2021" as="targetPoint" />
          </mxGeometry>
        </mxCell>
        <mxCell id="MaMV1J0jPY5Sbd57PqEo-130" value="1" style="edgeLabel;resizable=0;labelBackgroundColor=none;fontSize=12;align=right;verticalAlign=top;" vertex="1" parent="MaMV1J0jPY5Sbd57PqEo-129">
          <mxGeometry x="-1" relative="1" as="geometry" />
        </mxCell>
        <mxCell id="MaMV1J0jPY5Sbd57PqEo-131" value="1" style="edgeLabel;resizable=0;labelBackgroundColor=none;fontSize=12;align=left;verticalAlign=bottom;" vertex="1" parent="MaMV1J0jPY5Sbd57PqEo-129">
          <mxGeometry x="1" relative="1" as="geometry" />
        </mxCell>
        <mxCell id="MaMV1J0jPY5Sbd57PqEo-133" value="Order" style="swimlane;fontStyle=1;align=center;verticalAlign=top;childLayout=stackLayout;horizontal=1;startSize=26;horizontalStack=0;resizeParent=1;resizeParentMax=0;resizeLast=0;collapsible=1;marginBottom=0;whiteSpace=wrap;html=1;" vertex="1" parent="WIyWlLk6GJQsqaUBKTNV-1">
          <mxGeometry x="820" y="1735.75" width="160" height="86" as="geometry" />
        </mxCell>
        <mxCell id="MaMV1J0jPY5Sbd57PqEo-134" value="+ field: type" style="text;strokeColor=none;fillColor=none;align=left;verticalAlign=top;spacingLeft=4;spacingRight=4;overflow=hidden;rotatable=0;points=[[0,0.5],[1,0.5]];portConstraint=eastwest;whiteSpace=wrap;html=1;" vertex="1" parent="MaMV1J0jPY5Sbd57PqEo-133">
          <mxGeometry y="26" width="160" height="26" as="geometry" />
        </mxCell>
        <mxCell id="MaMV1J0jPY5Sbd57PqEo-135" value="" style="line;strokeWidth=1;fillColor=none;align=left;verticalAlign=middle;spacingTop=-1;spacingLeft=3;spacingRight=3;rotatable=0;labelPosition=right;points=[];portConstraint=eastwest;strokeColor=inherit;" vertex="1" parent="MaMV1J0jPY5Sbd57PqEo-133">
          <mxGeometry y="52" width="160" height="8" as="geometry" />
        </mxCell>
        <mxCell id="MaMV1J0jPY5Sbd57PqEo-136" value="+ method(type): type" style="text;strokeColor=none;fillColor=none;align=left;verticalAlign=top;spacingLeft=4;spacingRight=4;overflow=hidden;rotatable=0;points=[[0,0.5],[1,0.5]];portConstraint=eastwest;whiteSpace=wrap;html=1;" vertex="1" parent="MaMV1J0jPY5Sbd57PqEo-133">
          <mxGeometry y="60" width="160" height="26" as="geometry" />
        </mxCell>
        <mxCell id="MaMV1J0jPY5Sbd57PqEo-137" value="" style="line;strokeWidth=1;fillColor=none;align=left;verticalAlign=middle;spacingTop=-1;spacingLeft=3;spacingRight=3;rotatable=0;labelPosition=right;points=[];portConstraint=eastwest;strokeColor=inherit;" vertex="1" parent="WIyWlLk6GJQsqaUBKTNV-1">
          <mxGeometry x="724" y="1780" width="96" height="8" as="geometry" />
        </mxCell>
        <mxCell id="MaMV1J0jPY5Sbd57PqEo-138" value="NOTA: Order no llegue a programarla pero es para completar el diagrama con el ejemplo" style="text;align=center;fontStyle=1;verticalAlign=middle;spacingLeft=3;spacingRight=3;strokeColor=none;rotatable=0;points=[[0,0.5],[1,0.5]];portConstraint=eastwest;html=1;" vertex="1" parent="WIyWlLk6GJQsqaUBKTNV-1">
          <mxGeometry x="1090" y="1660" width="80" height="26" as="geometry" />
        </mxCell>
      </root>
    </mxGraphModel>
  </diagram>
</mxfile>
